<?xml version="1.0" encoding="utf-8"?>
<svg viewBox="0 0 1920 1080" width="1920" height="1080" xmlns="http://www.w3.org/2000/svg">
  <defs>
    <radialGradient gradientUnits="userSpaceOnUse" cx="1658.57" cy="696.642" r="1078.843" id="gradient-0" gradientTransform="matrix(1, 0, 0, 1, 7.068962, -71.609003)">
      <stop offset="0" style="stop-color: rgba(241, 248, 141, 0.43);"/>
      <stop offset="1" style="stop-color: rgb(187, 249, 255);"/>
    </radialGradient>
    <radialGradient gradientUnits="userSpaceOnUse" cx="-500.627" cy="1736.086" r="1041.613" id="gradient-2" gradientTransform="matrix(0.172776, 0.177605, -0.941634, 0.916036, 3155.07839, -643.385519)">
      <stop offset="0" style="stop-color: rgba(101, 201, 39, 1)"/>
      <stop offset="1" style="stop-color: rgba(58, 116, 22, 1)"/>
    </radialGradient>
    <linearGradient gradientUnits="userSpaceOnUse" x1="1134.932" y1="761.484" x2="1134.932" y2="1269.856" id="gradient-13" gradientTransform="matrix(0.67714, 0.838735, -2.64761, 1.589589, 2915.025173, -1592.152482)" spreadMethod="pad">
      <stop offset="0" style="stop-color: rgb(31, 34, 11);"/>
      <stop offset="1" style="stop-color: rgb(166, 189, 36);"/>
    </linearGradient>
    <linearGradient gradientUnits="userSpaceOnUse" x1="1728.548" y1="60.749" x2="1728.548" y2="424.567" id="gradient-4" gradientTransform="matrix(1.308159, 0.134502, -0.052227, 0.458823, -715.577317, -77.540632)">
      <stop offset="0" style="stop-color: rgba(255, 255, 255, 1)"/>
      <stop offset="1" style="stop-color: rgba(204, 204, 204, 1)"/>
    </linearGradient>
    <radialGradient gradientUnits="userSpaceOnUse" cx="1728.548" cy="242.658" r="382.003" id="gradient-5" gradientTransform="matrix(1.31516, 0, 0, 1, -461.941395, -5.528376)">
      <stop offset="0" style="stop-color: rgba(243, 255, 248, 1)"/>
      <stop offset="1" style="stop-color: rgba(141, 255, 188, 1)"/>
    </radialGradient>
    <linearGradient gradientUnits="userSpaceOnUse" x1="1728.548" y1="60.749" x2="1728.548" y2="424.567" id="gradient-3" gradientTransform="matrix(1.314908, 0.019629, -0.009715, 0.376256, -1137.936699, 34.241199)">
      <stop offset="0" style="stop-color: rgba(255, 255, 255, 1)"/>
      <stop offset="1" style="stop-color: rgba(204, 204, 204, 1)"/>
    </linearGradient>
    <radialGradient gradientUnits="userSpaceOnUse" cx="1728.548" cy="242.658" r="382.003" id="gradient-6" gradientTransform="matrix(1.31516, 0, 0, 1, -1100.092216, -140.927952)">
      <stop offset="0" style="stop-color: rgba(243, 255, 248, 1)"/>
      <stop offset="1" style="stop-color: rgba(141, 255, 188, 1)"/>
    </radialGradient>
    <linearGradient gradientUnits="userSpaceOnUse" x1="1568.111" y1="635.359" x2="1568.111" y2="718.563" id="gradient-1" gradientTransform="matrix(-0.081984, 0.996634, -0.215155, 0, 1867.567139, -888.067383)">
      <stop offset="0" style="stop-color: rgb(255, 255, 255);"/>
      <stop offset="1" style="stop-color: rgb(148, 146, 146);"/>
    </linearGradient>
    <linearGradient gradientUnits="userSpaceOnUse" x1="1568.641" y1="566.441" x2="1568.641" y2="672.403" id="gradient-8" gradientTransform="matrix(0.513716, 0.551189, -0.213964, 0.206649, 936.801236, -373.809998)">
      <stop offset="0" style="stop-color: rgb(244, 241, 246);"/>
      <stop offset="1" style="stop-color: rgb(30, 112, 188);"/>
    </linearGradient>
    <radialGradient gradientUnits="userSpaceOnUse" cx="1568.641" cy="619.422" r="55.108" id="gradient-7" gradientTransform="matrix(0.578929, 0.51714, -0.452071, 0.585372, 944.36166, -564.16394)">
      <stop offset="0" style="stop-color: rgb(46, 116, 209);"/>
      <stop offset="1" style="stop-color: rgb(250, 250, 250);"/>
    </radialGradient>
    <radialGradient gradientUnits="userSpaceOnUse" cx="1557.727" cy="748.862" r="76.806" id="gradient-9" gradientTransform="matrix(0.535232, -0.026513, 0.051037, 0.977968, 692.2039, 56.544588)">
      <stop offset="0" style="stop-color: rgba(202, 202, 198, 1)"/>
      <stop offset="1" style="stop-color: rgba(153, 153, 145, 1)"/>
    </radialGradient>
    <linearGradient gradientUnits="userSpaceOnUse" x1="1564.524" y1="690.393" x2="1564.524" y2="732.758" id="gradient-10" gradientTransform="matrix(0.979172, 0.20303, -0.95251, 4.59374, 720.640503, -2834.438043)">
      <stop offset="0" style="stop-color: rgb(12, 186, 255);"/>
      <stop offset="1" style="stop-color: rgb(50, 43, 79);"/>
    </linearGradient>
    <linearGradient gradientUnits="userSpaceOnUse" x1="1565.439" y1="646.471" x2="1565.439" y2="667.022" id="gradient-11" gradientTransform="matrix(0.998541, -0.077631, 0.032081, 0.852912, -9.344261, 221.19046)">
      <stop offset="0" style="stop-color: rgba(138, 136, 136, 1)"/>
      <stop offset="1" style=""/>
    </linearGradient>
  </defs>
  <path d="M 1296.277 817.007 C 1303.876 801.873 1310.259 792.854 1323.559 789.418 C 1326.3 788.71 1342.677 786.859 1343.929 784.766 C 1347.582 778.665 1350.539 768.805 1355.164 763.227 C 1362.163 754.786 1368.427 754.792 1375.058 747.772 C 1378.316 744.322 1378.447 739.574 1382.447 735.513 C 1385.62 732.289 1388.863 734.081 1392.129 730.959 C 1397.069 726.236 1398.648 718.628 1404.376 713.603 C 1413.542 705.561 1422.979 713.125 1433.352 701.417 C 1438.354 695.772 1439.95 688.295 1445.374 682.646 C 1451.314 676.458 1458.982 676.752 1463.266 669.217 C 1471.398 654.916 1471.779 641.148 1483.294 626.928 C 1489.62 619.116 1496.838 611.496 1504.354 608.383 C 1505.246 608.012 1515.012 606.445 1515.251 605.986 C 1525.936 585.544 1548.947 542.949 1569.56 537.026 C 1587.293 531.931 1597.941 542.716 1613.453 542.132 C 1624.399 541.722 1635.535 540.589 1646.109 541.33 C 1652.446 541.772 1663.223 541.183 1667.7 545.459 C 1671.229 548.833 1667.656 558.945 1664.432 565.489 C 1662.548 569.314 1654.993 576.946 1657.869 576.766 C 1680.267 575.361 1704.943 573.293 1717.319 590.034 C 1724.043 599.13 1730.257 610.81 1734.365 622.532 C 1735.287 625.164 1733.167 630.467 1735.042 632.061 C 1742.219 638.166 1748.059 641.626 1751.57 652.565 C 1754.042 660.263 1755.271 668.914 1753.986 679.168 C 1753.756 680.993 1753.222 686.541 1751.377 689.47 C 1750.783 690.415 1747.488 693.265 1747.525 693.908 C 1747.986 701.697 1749.715 708.571 1750.406 716.198 C 1751.006 722.829 1750.623 732.274 1745.939 740.807 C 1740.948 749.893 1732.147 756.941 1724.904 762.637 C 1722.51 764.52 1718.561 765.208 1717.679 768.046 C 1714.177 779.303 1724.397 790.897 1711.555 804.147 C 1685.37 831.163 1645.595 834.704 1621.341 841.777 C 1608.009 845.666 1594.673 849.547 1581.239 853.859 C 1577.667 855.006 1560.618 863.444 1557.941 860.847" style="fill-opacity: 0.73; stroke-width: 50px; stroke: rgba(0, 0, 0, 0.12); fill: rgba(255, 254, 183, 0.17); stroke-opacity: 0.05; visibility: hidden;" transform="matrix(0.999912, 0.013269, -0.013269, 0.999912, 9.402657, -20.178902)"/>
  <path d="M -31.523 -116.573 C -70.565 98.914 -79.457 324.698 -76.789 543.174 C -75.496 649.125 -65.363 754.848 -48.64 859.485 C -37.085 931.788 -73.484 1004.964 -61.68 1077.305 C -48.64 1157.217 -126.541 1236.697 -111.253 1316.032 C -110.108 1321.974 41.184 1372.604 48.711 1375.943 C 66.935 1384.026 87.994 1368.596 107.885 1367.25 C 197.777 1361.165 291.186 1367.287 380.556 1370.22 C 471.963 1373.219 458.737 1372.52 565.241 1380.775 C 686.957 1390.21 809.11 1397.172 930.668 1408.355 C 1193.819 1432.564 1456.323 1445.069 1720.344 1452.265 C 1779.498 1453.877 1838.869 1456.003 1897.992 1457.15 C 1911.393 1457.41 1950.543 1462.04 1958.656 1446.894 C 1964.737 1435.544 1958.737 1414.167 1960.685 1401.39 C 1969.635 1342.69 1984.282 1284.177 1993.563 1225.067 C 2025.969 1018.686 2023.906 817.57 2028.552 609.344 C 2031.505 477.035 2078.193 351.322 2080.327 219.204 C 2081.763 130.317 2071.396 36.731 2059.651 -51.552 C 2058.085 -63.322 2053.283 -129.037 2041.913 -137.012 C 2030.158 -145.257 1976.967 -140.572 1972.213 -140.572 C 1900.961 -140.572 1829.789 -139.026 1758.541 -137.933 C 1545.927 -134.673 1332.721 -136.113 1120.082 -138.958 C 1013.351 -140.386 906.706 -157.715 800.179 -164.354 C 613.455 -175.991 422.789 -174.608 236.066 -161.228 C 176.39 -156.952 117.202 -146.863 58.408 -136.05 C 32.831 -131.346 -4.923 -131.747 -27.229 -116.222 C -33.797 -111.65 -35.621 -92.823 -39.44 -85.32" style="fill: url(#gradient-0); paint-order: stroke; stroke-width: 0px; stroke-opacity: 0.92; stroke: rgb(175, 218, 255); fill-opacity: 0.77;"/>
  <path d="M -82.75 978.165 C 199.626 909.601 487.513 830.356 780.806 831.53 C 1042.797 832.578 1113.819 820.493 1186.355 816.411 C 1408.189 803.928 1429.31 760.614 1652.831 760.614 C 1739.074 760.614 1838.654 737.283 1926.42 755.412 C 1928.604 755.863 1934.142 788.258 1934.451 790.228 C 1941.793 837.08 1948.045 883.734 1955.898 930.913 C 1962.461 970.334 1968.712 1010.529 1971.387 1050.051 C 1974.397 1094.549 1971.668 1138.086 1975.688 1182.901 C 1976.394 1190.76 1987.824 1239.545 1981.274 1246.941 C 1978.948 1249.566 1951.665 1248.523 1950.866 1248.541 C 1920.22 1249.217 1889.338 1248.062 1858.666 1248.541 C 1724.852 1250.637 1590.507 1245.687 1456.468 1245.687 C 1098.12 1245.687 739.656 1253.431 380.338 1242.212 C 278.888 1239.045 177.272 1235.814 75.935 1234.114 C 20.651 1233.186 -38.872 1236.417 -94.356 1225.615 C -103.533 1223.829 -98.794 1178.678 -98.064 1172.991 C -91.822 1124.355 -77.181 1078.891 -69.323 1030.863 C -68.459 1025.58 -69.879 978.04 -78.935 978.04" style="fill-rule: nonzero; fill: url(#gradient-2); stroke-width: 0px; stroke: rgba(0, 0, 0, 0.07); stroke-opacity: 0.43;"/>
  <path d="M 551.842 1263.036 C 551.842 1263.036 670.889 1268.671 811.547 1215.948 C 838.647 1205.79 852.41 1171.157 856.949 1137.121 C 865.034 1076.482 730.44 1083.584 800.644 1039.408 C 841.081 1013.963 906.812 989.269 960.962 986.019 C 1016.694 982.674 1068.652 969.977 1123.671 964.312 C 1183.263 958.178 1353.136 919.576 1403.884 891.724 C 1451.103 865.806 1342.198 857.681 1371.826 834.088 C 1416.447 798.561 1464.35 809.443 1514.96 791.254 C 1547.039 779.721 1538.284 764.268 1538.284 764.268 L 1575.691 761.484 C 1575.691 761.484 1580.98 786.483 1538.416 797.896 C 1472.83 815.482 1482.96 810.269 1414.328 827.359 C 1375.489 837.03 1465.157 858.577 1454.802 886.935 C 1449.088 902.582 1336.784 942.506 1319.152 950.649 C 1237.924 988.166 1070.171 1002.921 965.369 1029.473 C 844.102 1060.197 1010.87 1074.019 1068.498 1107.293 C 1169.291 1165.49 1230.009 1314.795 1142.988 1270.695" style="fill: url(#gradient-13); stroke-opacity: 0.69; stroke-miterlimit: 8; stroke: rgba(0, 0, 0, 0); stroke-width: 10px; paint-order: stroke; mix-blend-mode: screen; filter: none;"/>
  <path d="M 1588.162 115.464 C 1499.439 101.518 1458.048 112.139 1446.767 150.282 C 1445.859 153.353 1454.692 170.155 1452.009 171.73 C 1435.385 181.5 1441.051 81.277 1341.312 178.862 C 1266.151 252.399 1039.946 76.555 1142.42 244 C 1160.367 273.326 1282.073 272.715 1333.702 304.523 C 1384.752 335.969 1582.876 382.461 1620.159 349.56 C 1625.666 344.705 1742.003 387.167 1759.801 390.795 C 1824.638 404.015 1891.226 412.017 1957.174 416.951 C 2050.129 423.905 2148.724 414.706 2156.173 370.618 C 2157.924 360.247 2138.275 344.778 2141.709 335.905 C 2144.641 328.333 2176.871 334.113 2193.006 331.859 C 2231.336 326.503 2307.014 315.841 2313.074 294.868 C 2321.916 264.259 2243.898 227.455 2225.249 199.02 C 2196.478 155.158 2168.868 82.584 2034.819 65.498 C 2022.411 63.918 2012.922 74.991 2011.711 74.785 C 1988.653 70.844 1978.882 58.717 1948.015 56.039 C 1893.487 51.308 1885.077 68.54 1843.91 70.991 C 1765.794 75.64 1683.381 69.885 1609.327 80.659 C 1583.149 84.465 1574.16 119.411 1573.89 118.942" style="stroke: url(#gradient-5); fill: url(#gradient-4); paint-order: stroke; stroke-opacity: 0; stroke-width: 0px; fill-opacity: 0.49;" transform="matrix(0.994858, -0.101276, 0.101276, 0.994858, -14.702095, 184.668091)"/>
  <path d="M 950.01 -19.936 C 861.287 -33.882 608.025 -115.039 596.744 -76.896 C 595.836 -73.825 304.343 -104.72 304.343 -104.72 C 304.343 -104.72 155.647 -75.388 419.08 29.13 C 446.315 39.936 723.03 111.698 714.486 116.52 C 684.546 133.422 643.921 137.315 695.55 169.123 C 746.6 200.569 1002.321 256.647 1039.604 223.746 C 1045.111 218.891 1053.864 236.274 1065.973 240.593 C 1081.909 246.279 1103.851 251.767 1121.649 255.395 C 1186.486 268.615 1253.074 276.617 1319.022 281.551 C 1411.977 288.505 1510.572 279.306 1518.021 235.219 C 1519.772 224.848 1500.123 209.378 1503.557 200.505 C 1506.489 192.933 1538.719 198.713 1554.854 196.459 C 1593.184 191.103 1668.862 180.441 1674.922 159.468 C 1683.764 128.859 2043.799 172.066 2025.897 143.155 C 1957.347 32.448 1530.716 -52.816 1396.667 -69.902 C 1384.259 -71.482 1374.77 -60.409 1373.559 -60.615 C 1350.501 -64.556 1340.73 -76.683 1309.863 -79.361 C 1255.335 -84.092 1246.925 -66.86 1205.758 -64.409 C 1127.642 -59.76 1045.229 -65.515 971.175 -54.741 C 944.997 -50.935 936.008 -15.989 935.738 -16.458" style="paint-order: stroke; stroke-opacity: 0; stroke-width: 0px; fill: url(#gradient-3); stroke: url(#gradient-6); fill-opacity: 0.69;" transform="matrix(0.994858, -0.101276, 0.101276, 0.994858, -4.270465, 119.342407)"/>
  <path d="M 611.383 845.644 C 500.574 851.332 445.705 861.909 337.537 884.063 C 278.025 896.251 180.803 919.41 121.943 933.982 C 60.864 949.102 -19.289 955.092 -74.326 983.811 C -89.258 991.603 -63.266 1006.917 -74.107 1020.638 C -79.558 1027.536 -111.691 1066.447 -107.579 1074.19 C -100.993 1086.593 -51.814 1355.717 -40.188 1353.701 C -4.823 1347.568 82.883 1362.812 116.547 1351.062 C 168.363 1332.977 388.909 1281.113 442.783 1269.622 C 548.522 1247.068 963.119 1213.274 828.371 1110.739 C 777.318 1071.891 779.016 973.194 853.958 965.134 C 1277.381 919.591 1042.953 906.869 1169.29 897.245 C 1365.624 882.289 1264.009 840.418 1391.056 802.455 C 1429.683 790.913 1143.783 827.959 1103.76 832.741 C 981.408 847.359 858.682 829.321 736.508 842.896 C 706.688 846.209 696.104 833.958 666.748 838.844" style="stroke-width: 0px; stroke: rgb(135, 255, 83); fill: rgba(177, 178, 174, 0.05);"/>
  <path d="M 1546.014 714.444 C 1546.014 710.036 1542.623 644.677 1543.892 643.557 C 1556.533 632.42 1572.117 636.152 1586.017 636.152 C 1587.01 636.152 1599.729 635.35 1600.11 637.867 C 1600.364 639.541 1601.707 657.758 1602.108 672.768 C 1602.644 692.795 1602.084 710.822 1600.631 712.038 C 1585.492 724.709 1563.014 708.778 1546.683 718.755" style="fill-opacity: 0.81; stroke: rgb(215, 215, 215); stroke-width: 0px; fill: url(#gradient-1);"/>
  <path d="M 1543.699 650.964 C 1519.747 626.433 1542.676 602.811 1551.883 597.877 C 1567.404 589.559 1573.164 567.079 1573.949 570.117 C 1577.16 582.545 1582.119 587.895 1591.07 595.288 C 1605.978 607.601 1618.734 629.562 1601.319 651.538" style="fill: url(#gradient-8); stroke: url(#gradient-7); stroke-width: 0px;"/>
  <path d="M 1496.863 773.452 C 1499.205 769.772 1488.626 719.154 1492.906 717.462 C 1514.696 708.851 1543.326 689.359 1569.657 695.338 C 1576.136 696.81 1593.761 700.887 1599.445 703.657 C 1610.619 709.099 1638.334 712.691 1644.059 723.299 C 1647.872 730.365 1651.692 739.654 1651.321 752.51 C 1651.249 754.993 1652.346 759.899 1650.987 760.938 C 1646.385 764.457 1632.24 770.424 1631.626 770.193 C 1629.095 769.242 1588.04 762.063 1496.901 772.873" style="stroke: rgb(0, 0, 0); fill: url(#gradient-9); stroke-opacity: 0.24;"/>
  <path d="M 1538.164 694.505 C 1523.822 699.982 1504.914 706.371 1492.033 712.32 C 1489.515 713.483 1472.761 718.209 1474.07 721.058 C 1475.851 724.934 1474.683 731.133 1478.585 729.41 C 1489.121 724.757 1491.659 721.785 1494.196 720.461 C 1516.095 709.027 1538.341 703.769 1563.448 703.769 C 1587.474 703.769 1599.167 703.158 1620.184 714.061 C 1625.671 716.907 1645.108 732.777 1646.371 729.968 C 1647.742 726.919 1664.829 722.246 1662.087 720.334 C 1639.908 704.868 1600.268 696.343 1571.555 690.594 C 1567.38 689.758 1541.782 691.639 1538.356 694.318" style="stroke: rgb(0, 0, 0); fill: url(#gradient-10); stroke-opacity: 0.08;"/>
  <path d="M 1541.899 768.038 C 1543.382 755.811 1535.118 721.458 1563.08 722.141 C 1579.219 722.534 1577.883 744.959 1577.482 754.784 C 1577.341 758.234 1577.554 761.687 1577.413 765.135 C 1577.397 765.537 1577.361 768.211 1577.202 768.211" style="stroke-width: 2px; stroke: rgb(225, 223, 205);" transform="matrix(0.999993, -0.003734, 0.003734, 0.999993, -2.771595, 5.829344)"/>
  <path d="M 1506.004 743.883 C 1506.004 740.524 1505.728 737.511 1505.379 734.227 C 1505.058 731.198 1504.152 727.483 1505.439 724.561 C 1507.281 720.382 1512.554 723.678 1513.379 726.549 C 1514.372 730.002 1513.398 731.208 1513.689 738.894 C 1513.706 739.364 1514.284 742.353 1513.796 742.82 C 1513.315 743.282 1505.876 744.015 1505.297 743.245" style="stroke-opacity: 0.53; stroke-width: 5px; stroke: rgba(0, 0, 0, 0.16); fill: rgb(216, 192, 96);"/>
  <path d="M 1520.5 741.516 C 1520.5 738.157 1520.224 735.144 1519.875 731.86 C 1519.554 728.831 1518.648 725.116 1519.935 722.194 C 1521.777 718.015 1527.05 721.311 1527.875 724.182 C 1528.868 727.635 1527.894 728.841 1528.185 736.527 C 1528.202 736.997 1528.78 739.986 1528.292 740.453 C 1527.811 740.915 1520.372 741.648 1519.793 740.878" style="stroke-opacity: 0.45; stroke-width: 5px; stroke: rgba(0, 0, 0, 0.19); fill: rgb(216, 208, 125);"/>
  <path d="M 1608.193 743.273 C 1608.193 739.914 1607.917 736.901 1607.568 733.617 C 1607.247 730.588 1606.341 726.873 1607.628 723.951 C 1609.47 719.772 1614.743 723.068 1615.568 725.939 C 1616.561 729.392 1615.587 730.598 1615.878 738.284 C 1615.895 738.754 1616.473 741.743 1615.985 742.21 C 1615.504 742.672 1608.065 743.405 1607.486 742.635" style="fill: rgb(216, 201, 117); stroke: rgba(69, 67, 63, 0.4); stroke-width: 5px;"/>
  <path d="M 1578.799 683.195 C 1578.799 680.431 1578.598 677.953 1578.344 675.251 C 1578.11 672.76 1577.449 669.703 1578.387 667.3 C 1579.73 663.862 1583.082 666.886 1584.173 668.935 C 1585.686 671.776 1584.987 672.768 1584.399 679.091 C 1584.363 679.475 1584.833 681.936 1584.477 682.32 C 1584.127 682.7 1578.706 683.303 1578.284 682.67" style="stroke-width: 2px; fill: rgba(151, 151, 0, 0.13); stroke: rgba(0, 0, 0, 0.17);"/>
  <path d="M 1547.227 683.513 C 1547.227 680.749 1546.863 678.195 1546.535 675.493 C 1546.233 673.002 1545.785 669.912 1546.995 667.509 C 1548.727 664.071 1552.476 666.818 1553.252 669.18 C 1554.186 672.021 1553.27 673.013 1553.543 679.336 C 1553.559 679.722 1554.103 682.181 1553.644 682.565 C 1553.192 682.945 1547.372 683.187 1546.828 682.554" style="stroke: rgba(0, 0, 0, 0.28); stroke-width: 3px; fill: rgba(233, 233, 15, 0.32); stroke-opacity: 0.56;"/>
  <path d="M 1561.793 683.434 C 1561.793 680.67 1561.562 678.192 1561.27 675.49 C 1561.001 672.999 1560.242 669.942 1561.32 667.539 C 1562.864 664.101 1567.281 666.812 1567.972 669.174 C 1568.804 672.015 1567.988 673.007 1568.231 679.33 C 1568.245 679.716 1568.73 682.175 1568.322 682.559 C 1567.918 682.939 1561.686 683.542 1561.202 682.909" style="stroke-width: 3px; fill: rgba(194, 200, 9, 0.19); stroke: rgba(0, 0, 0, 0.19);"/>
  <path d="M 1593.212 740.058 C 1593.212 736.699 1592.936 733.686 1592.587 730.402 C 1592.266 727.373 1591.36 723.658 1592.647 720.736 C 1594.489 716.557 1599.762 719.853 1600.587 722.724 C 1601.58 726.177 1600.606 727.383 1600.897 735.069 C 1600.914 735.539 1601.492 738.528 1601.004 738.995 C 1600.523 739.457 1593.084 740.19 1592.505 739.42" style="fill: rgb(216, 208, 120); stroke: rgba(0, 0, 0, 0.23); stroke-width: 6px;"/>
  <path d="M 1573.738 545.373 C 1573.324 552.149 1573.741 571.148 1573.614 571.148" style="fill: rgb(216, 201, 117); stroke: rgba(154, 154, 10, 0.69);"/>
  <path d="M 1569.669 548.662 C 1572.259 548.667 1574.857 548.667 1577.446 548.667" style="fill: rgb(216, 201, 117); stroke: rgba(154, 154, 10, 0.69);"/>
  <path d="M 1563.15 553.136 C 1567.373 553.136 1571.605 553.226 1575.829 553.226 C 1577.177 553.226 1578.567 553.133 1579.909 553.225 C 1584.132 553.516 1577.848 553.136 1581.494 553.347 C 1581.718 553.36 1582.391 553.381 1582.167 553.381" style="fill: rgb(216, 201, 117); stroke: rgba(154, 154, 10, 0.69);"/>
  <path d="M 1571.178 560.975 C 1572.08 562.197 1575.001 564.704 1576.252 564.704" style="fill: rgb(216, 201, 117); stroke: rgba(154, 154, 10, 0.69);"/>
  <path d="M 1492.249 722.172 C 1486.964 718.305 1544.114 694.617 1569.363 696.529 C 1575.577 697 1597.884 702.804 1603.335 703.69 C 1614.051 705.431 1626.297 712.422 1626.297 712.422 C 1626.297 712.422 1628.096 724.644 1627.102 724.111 C 1592.265 705.419 1597.592 709.559 1573.468 706.819 C 1561.504 705.46 1551.759 711.679 1540.26 718.4 C 1529.264 724.827 1507.836 754.363 1497.108 767.446" style="stroke: rgb(0, 0, 0); stroke-width: 0px; fill-opacity: 0.55; fill: rgba(0, 0, 0, 0.3);"/>
  <path d="M 1543.608 651.223 C 1556.664 650.817 1584.092 651.33 1601.532 651.476 C 1602.432 651.484 1601.878 658.3 1601.878 658.3 C 1601.878 658.3 1603.199 660.204 1594.725 667.377 C 1586.951 673.957 1567.185 690.173 1544.789 694.218" style="stroke-width: 0px; stroke: url(#gradient-11); fill-opacity: 0.19;"/>
  <path d="M 1497.173 770.424 C 1517.963 770.073 1533.623 765.695 1549.759 765.129 C 1563.382 764.65 1594.248 760.791 1618.202 766.92 C 1620.748 767.571 1636.714 767.06 1630.676 770.8 C 1625.025 774.3 1652.032 760.813 1652.032 760.813 L 1683.573 759.804 C 1683.573 759.804 1663.075 784.825 1658.318 787.94 C 1650.121 793.307 1639.059 796.805 1631.695 797.016 C 1587.584 798.277 1609.769 788.079 1494.212 810.89 C 1459.13 817.815 1484.523 810.157 1379.49 821.775 C 1366.481 823.214 1251.99 814.337 1256.799 812.986 C 1270.768 809.062 1362.19 795.742 1369.929 794.103 C 1381.302 791.695 1373.832 793.395 1401.216 787.417" style="stroke-width: 0px; stroke: rgba(0, 0, 0, 0.78); fill: rgba(0, 0, 0, 0.23); fill-opacity: 0.66;"/>
  <path d="M 1591.701 682.805 C 1591.701 680.041 1591.442 677.563 1591.114 674.861 C 1590.812 672.37 1589.96 669.313 1591.17 666.91 C 1592.902 663.472 1596.259 666.167 1597.134 668.494 C 1598.284 671.551 1599.685 672.378 1598.926 678.701 C 1598.88 679.085 1599.486 681.546 1599.027 681.93 C 1598.575 682.31 1591.581 682.913 1591.037 682.28" style="stroke-width: 2px; fill: rgba(154, 149, 11, 0.16); stroke: rgba(0, 0, 0, 0.15);"/>
  <path d="M 1545.885 767.802 C 1546.925 756.708 1537.003 724.828 1563.402 725.398 C 1574.005 725.627 1574.364 741.183 1574.275 750.098 C 1574.244 753.228 1574.879 757.465 1574.847 760.594 C 1574.843 760.959 1575.244 767.726 1575.244 767.726" style="stroke: rgba(177, 174, 131, 0.8); stroke-width: 4px; fill: rgba(230, 230, 46, 0.85);" transform="matrix(0.999993, -0.003734, 0.003734, 0.999993, -2.776915, 5.830497)"/>
  <path d="M 1586.596 586.49 C 1584.264 591.414 1584.955 596.353 1579.472 600.777 C 1574.463 604.816 1564.835 607.572 1562.511 612.556 C 1559.483 619.052 1553.469 626.753 1555.567 633.244 C 1556.169 635.109 1558.475 651.432 1558.475 651.432 L 1533.375 640.011 C 1533.375 640.011 1529.824 632.272 1530.402 628.272 C 1530.949 624.499 1532.762 618.201 1535.035 614.543 C 1540.69 605.43 1553.511 601.735 1566.951 598.51 C 1572.121 597.269 1580.954 595.564 1583.271 592.644 C 1584.129 591.568 1584.813 590.574 1585.446 589.443 C 1585.743 588.912 1586.166 587.279 1586.088 587.824" style="stroke-width: 0px; stroke: rgba(43, 37, 37, 0.9); fill: rgba(77, 76, 113, 0.14);" transform="matrix(0.906645, -0.421895, 0.421895, 0.906645, -115.645386, 715.292664)"/>
  <path d="M 1701.911 938.876 C 1657.752 940.595 1564.424 939.827 1435.213 974.134 C 1312.123 1006.816 1560.947 1000.625 1538.184 1010.591 C 1514.094 1021.139 1483.023 1016.5 1457.321 1017.133 C 1415.115 1018.173 1365.73 1030.869 1327.48 1048.326 C 1309.924 1056.339 1267.439 1044.362 1250.977 1054.46 C 1249.748 1055.213 1183.504 1077.706 1185.742 1080.739 C 1209.031 1112.303 1255.052 1137.61 1286.186 1136.268 C 1323.004 1134.681 1614.482 1154.642 1651.749 1151.4 C 2082.762 1113.908 1853.894 1100.775 1885.147 1086.306 C 1923.741 1068.438 1678.849 1021.736 1720.917 1013.976 C 1732.643 1011.814 1744.102 1010.984 1756.006 1010.489 C 1791.215 1009.024 1814.044 1008.965 1844.948 992.294 C 1851.46 988.781 1867.956 981.027 1866.614 971.454 C 1864.696 957.77 1829.395 962.778 1823.462 962.778 C 1809.713 962.778 1855.394 915.911 1839.91 910.522 C 1830.582 907.275 1761.503 910.32 1752.423 907.314 C 1740.218 903.274 1704.809 949.568 1693.629 943.978" style="stroke-width: 0px; stroke: rgba(0, 0, 0, 0.63); fill: rgba(5, 86, 9, 0.11);"/>
  <path d="M 1630.144 747.846 C 1630.144 752.316 1631.707 769.212 1631.801 769.211 C 1635.65 769.194 1650.976 760.773 1650.976 760.773 C 1650.976 760.773 1651.343 741.854 1647.418 731.166 C 1646.357 728.276 1638.768 731.973 1657.122 723.969 C 1658.31 723.451 1627.882 712.343 1626.356 711.977" style="stroke-width: 0px; stroke: rgb(37, 153, 155); fill: rgba(0, 0, 0, 0.19);"/>
  <path d="M 1552.934 744.41 C 1553.411 744.106 1550.628 729.503 1560.664 723.201 C 1560.706 723.174 1552.469 725.723 1552.235 725.807 C 1549.608 726.747 1549.088 728.662 1547.457 730.533 C 1544.61 733.797 1544.223 739.834 1543.779 744.132 C 1543.312 748.648 1543.947 765.648 1543.947 767.669 C 1546.831 765.414 1548.552 763.209 1553.314 760.984" style="stroke: rgb(0, 0, 0); fill: rgba(0, 0, 0, 0.23); stroke-width: 0px;"/>
  <path d="M 718.667 867.027 C 618.25 872.329 608.076 900.681 508.813 913.818 C 450.7 921.509 395.122 880.003 187.409 911.705 C 156.992 916.347 -69.932 978.53 -100.768 979.618 C -114.559 980.104 -137.486 1248.303 -136.714 1248.63 C -109.723 1260.045 129.878 1318.86 538.691 1239.378 C 912.408 1166.719 677.153 997.631 713.501 980.239 C 725.146 974.667 730.533 961.54 740.52 955.465 C 753.338 947.668 776.946 948.758 791.405 945.444 C 815.847 939.841 838.949 926.699 863.614 922.907 C 885.336 919.567 909.311 923.086 931.201 923.086 C 938.858 923.086 1152.038 888.29 1143.611 867.276 C 1138.092 853.516 883.097 859.1 829.774 861.293" style="stroke-width: 0px; stroke: rgb(0, 0, 0); fill: rgba(12, 221, 82, 0.11);"/>
  <path d="M 1557.294 709.801 C 1555.962 710.724 1555.552 711.339 1554.99 713.028 C 1554.713 713.858 1554.983 714.795 1555.281 715.582 C 1556.193 717.991 1556.713 718.941 1559.384 719.012 C 1560.083 719.031 1560.786 719.012 1561.486 719.012 C 1562.897 719.012 1564.192 719.303 1565.353 718.466 C 1566.071 717.948 1566.821 716.017 1566.894 715.198 C 1567.024 713.738 1566.269 711.858 1565.491 710.557 C 1564.171 708.346 1559.559 708.104 1557.971 709.632" style="fill-opacity: 0.31; stroke: rgba(0, 0, 0, 0.07); stroke-opacity: 0.43; fill: rgb(216, 203, 18);"/>
  <path d="M 1557.123 718.221 C 1557.08 717.539 1556.987 716.842 1557.401 716.251 C 1558.041 715.337 1559.26 715.219 1559.59 714.215 C 1559.22 713.919 1558.685 713.523 1558.631 712.986 C 1558.456 711.244 1559.998 710.605 1561.429 710.702 C 1561.741 710.723 1562.421 710.752 1562.657 710.976 C 1562.933 711.237 1563.187 711.225 1563.339 711.609 C 1563.536 712.104 1563.821 712.996 1563.48 713.504 C 1563.301 713.771 1562.933 713.886 1562.661 714.016 C 1562.318 714.182 1562.549 715.295 1562.704 715.576 C 1563.03 716.167 1564.334 716.502 1564.913 716.845 C 1564.998 716.895 1565.814 717.538 1565.797 717.538" style="stroke: rgba(0, 0, 0, 0.07); stroke-opacity: 0.43; fill: rgb(216, 206, 60);"/>
  <path style="stroke: rgb(0, 0, 0); fill-opacity: 0.34; stroke-width: 0px;" d="M 1553.774 760.51 C 1551.487 761.907 1549.057 762.884 1546.949 764.609 C 1546.157 765.259 1545.226 765.938 1544.569 766.781 C 1544.532 766.829 1543.883 767.719 1543.991 767.761 C 1544.511 767.966 1545.806 767.708 1546.327 767.708 C 1548.181 767.708 1550.006 767.693 1551.853 767.642 C 1556.719 767.507 1561.583 767.605 1566.451 767.605 C 1567.877 767.605 1570.395 767.65 1571.808 767.596 C 1572.839 767.556 1574.278 767.952 1575.275 767.638 C 1575.315 767.625 1574.147 766.444 1574.182 766.298 C 1574.398 765.371 1574.449 764.26 1574.447 763.297 C 1574.446 763.062 1574.678 760.824 1574.615 760.809 C 1572.89 760.389 1570.281 760.84 1568.531 760.702 C 1566.626 760.551 1564.676 760.603 1562.77 760.547" transform="matrix(0.999928, -0.011996, 0.011996, 0.999928, -9.051163, 18.760344)"/>
</svg>